<svg width="184" height="24" viewBox="0 0 184 24" fill="none" xmlns="http://www.w3.org/2000/svg">
<g id="Frame 193">
<circle id="Ellipse 32" cx="4" cy="4" r="4" fill="#24292A"/>
<circle id="Ellipse 44" cx="100" cy="4" r="4" fill="#24292A"/>
<circle id="Ellipse 38" cx="4" cy="20" r="4" fill="#24292A"/>
<circle id="Ellipse 45" cx="100" cy="20" r="4" fill="#24292A"/>
<circle id="Ellipse 33" cx="20" cy="4" r="4" fill="#24292A"/>
<circle id="Ellipse 46" cx="116" cy="4" r="4" fill="#24292A"/>
<circle id="Ellipse 39" cx="20" cy="20" r="4" fill="#24292A"/>
<circle id="Ellipse 47" cx="116" cy="20" r="4" fill="#24292A"/>
<circle id="Ellipse 34" cx="36" cy="4" r="4" fill="#24292A"/>
<circle id="Ellipse 48" cx="132" cy="4" r="4" fill="#24292A"/>
<circle id="Ellipse 40" cx="36" cy="20" r="4" fill="#24292A"/>
<circle id="Ellipse 49" cx="132" cy="20" r="4" fill="#24292A"/>
<circle id="Ellipse 35" cx="52" cy="4" r="4" fill="#24292A"/>
<circle id="Ellipse 50" cx="148" cy="4" r="4" fill="#24292A"/>
<circle id="Ellipse 41" cx="52" cy="20" r="4" fill="#24292A"/>
<circle id="Ellipse 51" cx="148" cy="20" r="4" fill="#24292A"/>
<circle id="Ellipse 36" cx="68" cy="4" r="4" fill="#24292A"/>
<circle id="Ellipse 52" cx="164" cy="4" r="4" fill="#24292A"/>
<circle id="Ellipse 42" cx="68" cy="20" r="4" fill="#24292A"/>
<circle id="Ellipse 53" cx="164" cy="20" r="4" fill="#24292A"/>
<circle id="Ellipse 37" cx="84" cy="4" r="4" fill="#24292A"/>
<circle id="Ellipse 54" cx="180" cy="4" r="4" fill="#24292A"/>
<circle id="Ellipse 43" cx="84" cy="20" r="4" fill="#24292A"/>
<circle id="Ellipse 55" cx="180" cy="20" r="4" fill="#24292A"/>
</g>
</svg>
