<svg width="211" height="233" viewBox="0 0 211 233" fill="none" xmlns="http://www.w3.org/2000/svg">
<g id="Group">
<path id="Vector" d="M142.743 191.586C135.278 196.435 127.813 201.284 120.348 206.134C123.895 200.58 129.45 197.102 134.804 193.742C140.274 190.584 145.977 187.83 151.533 184.353C148.463 185.586 145.074 186.734 142.121 188.169C138.848 189.519 135.809 191.273 132.568 193.145C129.529 194.899 126.607 196.856 123.685 198.813C120.763 200.77 118.043 202.609 115.238 204.769C115.121 204.566 114.919 204.683 114.802 204.481C115.293 203.928 115.55 202.97 116.158 202.619C121.621 197.577 127.403 192.62 134.119 189.282C138.086 187.262 142.402 185.849 146.602 184.233C150.568 182.213 154.596 181.236 158.795 179.621C147.226 180.636 136.684 184.834 126.492 189.639C137.48 180.598 150.663 176.763 164.609 175.185C163.448 175.046 162.404 175.11 161.243 174.971C160.082 174.832 159.038 174.895 157.878 174.756C143.2 174.599 129.877 179.594 117.549 187.25C111.386 191.078 106.328 195.887 103.366 202.452C102.072 205.357 101.447 208.954 101.228 212.318C100.923 216 103.166 218.482 106.679 219.42C112.109 220.871 117.267 219.511 121.841 217.14C130.178 212.866 137.028 206.484 143.325 199.612C146.762 195.739 150.432 192.271 153.986 188.601C154.391 188.367 154.477 188.048 155.373 187.261C145.758 191.194 139.843 199.194 131.419 203.788C131.303 203.585 131.186 203.383 130.866 203.298C134.942 199.596 139.018 195.894 143.093 192.193C142.977 191.99 142.86 191.788 142.743 191.586Z" fill="#24292A" fill-opacity="0.5"/>
<path id="Vector_2" d="M117.523 96.9055C124.144 99.0168 129.91 97.3064 134.944 93.8606C142.494 88.692 146.672 81.4247 146.753 72.2072C146.827 61.1058 138.337 55.7578 128.231 60.2437C118.935 64.2618 111.156 77.924 112.384 88.0044C112.531 88.7283 112.679 89.4521 113.061 90.5806C114.238 87.4733 115.33 84.6852 116.741 81.9825C119.36 76.694 127.035 73.6117 132.495 75.5838C137.317 77.3854 138.671 82.5377 135.179 87.251C133.044 90.1023 130.208 91.7398 126.935 93.0897C123.982 94.525 120.998 95.4387 117.523 96.9055Z" fill="#24292A" fill-opacity="0.5"/>
<path id="Vector_3" d="M96.4349 218.052C94.1177 203.745 100.448 190.38 113.469 182.054C121.253 177.29 129.917 174.985 138.993 174.33C147.664 173.909 156.366 174.01 165.068 174.111C174.293 174.18 183.455 173.206 192.555 171.188C185.824 170.759 179.295 170.212 172.767 169.666C164.439 168.81 155.994 167.751 147.581 167.214C136.44 166.633 125.829 167.904 115.52 172.507C99.1032 180.098 90.559 198.517 95.3527 215.71C95.6173 216.636 95.9677 217.243 96.4349 218.052Z" fill="#24292A" fill-opacity="0.5"/>
<path id="Vector_4" d="M92.5968 132.335C88.9783 119.05 75.3159 111.293 64.8143 110.883C56.5173 110.548 52.0127 115.846 53.9579 123.894C55.934 132.464 61.4949 137.884 69.6584 141.263C74.5971 143.267 79.7621 143.791 84.8651 143.273C87.3582 142.912 89.6178 142.147 92.1967 141.467C91.8701 139.498 90.6235 139.678 89.377 139.859C83.3468 140.643 77.6836 138.788 72.4803 135.858C68.352 133.386 66.6549 129.511 67.6534 125.158C67.825 124.519 68.6044 123.53 69.329 123.381C74.4558 121.5 79.2466 122.78 83.6085 125.657C86.7476 127.351 89.6293 130.003 92.5968 132.335Z" fill="#24292A" fill-opacity="0.5"/>
<path id="Vector_5" d="M193.055 165.505C191.894 165.366 190.936 165.11 189.775 164.971C181.736 163.678 173.953 161.428 167.38 156.592C161.359 152.246 157.652 146.294 155.769 139.289C154.742 136.106 153.917 132.806 153.209 129.709C152.229 123.801 153.485 118.49 156.019 113.521C157.718 110.382 159.854 107.531 161.67 104.594C162.161 104.041 162.449 103.605 162.94 103.051C162.823 102.849 162.706 102.647 162.59 102.445C161.171 103.263 159.551 104.199 158.249 105.22C146.802 115.336 143.151 131.47 148.397 145.704C152.266 156.147 160.032 161.644 170.54 163.938C173.298 164.504 175.853 165.187 178.494 165.55C183.34 165.989 188.069 166.226 193 166.346C192.883 166.143 192.969 165.824 193.055 165.505Z" fill="#24292A" fill-opacity="0.5"/>
<path id="Vector_6" d="M98.6916 49.7855C98.5438 49.0616 98.396 48.3378 98.365 47.8162C96.9252 42.9831 97.8069 38.4281 100.169 34.0974C102.242 30.2029 105.429 29.1723 108.857 30.4302C113.359 32.1464 114.994 34.9786 113.996 39.3313C113.309 41.8855 112.187 44.1519 110.659 46.6524C110.542 46.4501 110.309 46.0455 109.927 44.917C108.976 46.545 108.228 48.056 107.363 49.3647C107.479 49.567 107.479 49.567 107.799 49.6523C108.204 49.4184 108.609 49.1844 109.014 48.9505L109.131 49.1528C108.149 50.2592 107.487 51.4509 106.302 52.6743C108.912 52.5161 110.704 50.9418 112.294 49.4845C120.789 40.804 122.912 27.1705 114.345 17.0115C110.849 12.8265 107.569 12.2925 103.143 15.3873C97.7039 19.067 95.2014 24.5578 93.8907 30.7091C93.0471 37.6697 94.7825 43.9505 98.6916 49.7855Z" fill="#24292A" fill-opacity="0.5"/>
<path id="Vector_7" d="M100.751 140.844C106.119 141.252 111.689 141.542 117.174 142.152C118.973 142.462 121.006 143.176 121.91 144.273C127.587 149.896 134.535 153.977 141.452 157.536C154.733 164.163 168.841 167.077 183.666 167.958C184.827 168.097 186.191 168.119 187.32 167.737C184.041 167.203 180.675 166.988 177.598 166.337C166.598 164.596 156.058 161.78 145.831 157.165C136.359 152.924 128.359 147.023 121.311 139.494C116.389 134.243 112.246 128.004 109.436 121.265C107.358 116.261 107.336 110.609 108.592 105.298C108.904 103.5 109.216 101.701 109.645 100.105C109.326 100.02 109.006 99.9342 108.687 99.8489C107.455 103.797 106.542 107.831 105.224 112.098C99.3246 93.9256 95.6296 75.8291 100.808 57.1948C100.489 57.1094 100.17 57.0241 99.967 57.1411C99.2806 59.6952 98.4775 62.047 97.7911 64.6011C97.1047 67.1553 96.7378 69.7947 96.3708 72.4342C96.0038 75.0736 95.8394 77.5961 95.7918 80.3209C95.7442 83.0457 95.8992 85.6535 95.8517 88.3783C92.8294 86.8864 89.8071 85.3946 86.7848 83.9028C86.5822 84.0197 86.4964 84.339 86.2938 84.456C88.2721 86.0111 90.2504 87.5662 92.3146 88.802C95.8589 90.2622 97.0268 92.2852 97.649 95.7022C99.1032 104.303 102.007 112.607 105.837 120.645C108.967 127.47 112.993 133.507 117.541 139.513C117.657 139.715 117.774 139.917 118.241 140.726C112.266 140.67 106.493 140.496 100.837 140.525L100.751 140.844Z" fill="#24292A" fill-opacity="0.5"/>
<path id="Vector_8" d="M124.201 166.956C116.347 168.793 108.758 171.556 101.636 175.128C92.9796 179.317 86.5658 185.987 81.9278 194.329C80.2285 197.468 79.2847 200.98 80.0237 204.599C80.2025 205.845 81.2537 207.666 82.2119 207.922C83.4894 208.263 85.5464 207.615 86.6451 206.711C87.7439 205.807 88.3755 204.093 88.8044 202.497C92.4317 187.725 101.472 177.651 114.936 171.496C117.889 170.061 121.278 168.913 124.348 167.68C124.232 167.478 124.115 167.275 124.201 166.956Z" fill="#24292A" fill-opacity="0.5"/>
<path id="Vector_9" d="M131.299 164.746C126.508 163.466 121.374 163.463 116.59 164.067C107.342 165.361 98.1255 167.176 89.4378 170.843C87.9029 171.459 86.1653 172.193 84.864 173.214C83.851 173.799 83.1575 174.469 82.3781 175.458C81.4271 177.086 80.9124 179.002 82.1661 180.705C83.4199 182.409 85.1884 182.197 86.926 181.464C90.4868 179.678 94.1335 177.572 97.5776 175.584C107.793 169.416 118.943 164.867 131.299 164.746Z" fill="#24292A" fill-opacity="0.5"/>
<path id="Vector_10" d="M76.2996 80.246C74.0019 78.6055 71.8209 77.1674 69.5232 75.5269C68.9702 75.037 68.2146 74.664 67.8643 74.0571C67.1325 72.3218 66.6033 70.4695 66.1909 68.8195C67.64 68.5222 69.175 67.9058 70.6551 68.1301C74.2232 68.2279 76.8713 70.4753 79.2311 73.1588C77.2693 68.3574 74.8166 64.1091 70.0805 61.9883C66.4194 60.3258 62.594 61.1858 60.2559 64.1541C58.2061 66.6862 58.54 70.5394 60.8139 73.5422C64.8636 78.2171 70.2074 79.9871 76.2996 80.246Z" fill="#24292A" fill-opacity="0.5"/>
<path id="Vector_11" d="M112.839 100.958C116.102 104.739 118.758 108.87 123.494 110.991C128.113 112.909 132.701 114.306 137.626 112.542C138.755 112.16 140.259 111.021 140.111 110.298C140.049 109.255 138.998 107.434 138.243 107.061C135.976 105.942 133.304 105.057 130.78 104.896C124.657 104.115 118.479 104.176 112.839 100.958Z" fill="#24292A" fill-opacity="0.5"/>
<path id="Vector_12" d="M108.857 53.3569C116.944 51.9245 121.799 47.2334 125.984 41.85C128.408 38.5624 130.396 34.9872 130.351 30.6978C130.405 29.8569 130.258 29.1331 130.11 28.4092C129.814 26.9615 128.997 25.5454 127.111 25.555C125.226 25.5646 124.563 26.7563 124.134 28.3526C123.534 30.5875 122.933 32.8223 122.216 34.8549C119.721 42.2296 116.556 48.9121 108.857 53.3569Z" fill="#24292A" fill-opacity="0.5"/>
<path id="Vector_13" d="M117.132 100.907C123.341 101.369 129.581 102.351 135.728 101.769C141.15 101.336 146.363 99.1357 149.301 93.9326L149.504 93.8156C149.73 92.3363 150.074 91.0592 150.503 89.4629C148.82 89.3555 147.223 88.9288 145.571 89.343C143.919 89.7572 142.213 91.0122 141.028 92.2356C136.142 96.4052 130.758 99.244 124.058 99.336C121.97 99.4625 119.797 99.9083 117.825 100.237C117.218 100.588 117.132 100.907 117.132 100.907Z" fill="#24292A" fill-opacity="0.5"/>
<path id="Vector_14" d="M95.1214 132.496C94.368 125.109 93.8172 117.605 89.2693 111.599C87.4625 109.406 85.2506 107.446 83.0387 105.486C82.4857 104.996 81.5275 104.74 80.8029 104.889C79.8758 105.154 78.224 105.569 77.8498 106.324C77.4757 107.08 77.888 108.73 78.3552 109.539C79.8426 111.647 81.33 113.755 83.2225 115.63C88.4329 120.444 92.6304 125.843 95.1214 132.496Z" fill="#24292A" fill-opacity="0.5"/>
<path id="Vector_15" d="M161.275 145.551C159.142 141.388 158.255 137.045 158.818 132.405C159.544 125.242 161.782 118.825 167.245 113.783C168.92 112.006 170.362 109.825 171.485 107.559C171.859 106.803 171.649 105.036 171.213 104.748C170.341 104.173 168.977 104.151 167.933 104.214C167.209 104.363 166.313 105.15 165.822 105.703C158.316 115.161 154.846 125.527 157.445 137.513C158.036 140.408 159.554 143.038 160.551 145.7C160.87 145.785 161.073 145.668 161.275 145.551Z" fill="#24292A" fill-opacity="0.5"/>
<path id="Vector_16" d="M143.102 164.136C139.557 162.675 136.216 161.098 133.022 160.245C124.718 158.026 116.218 157.809 107.695 158.953C106.97 159.102 105.926 159.165 105.318 159.516C104.422 160.303 103.76 161.495 103.822 162.538C103.736 162.857 105.481 164.008 106.205 163.859C112.266 163.597 118.211 163.132 124.069 162.986C130.131 162.723 136.02 163.099 142.089 164.72C142.291 164.603 142.291 164.603 143.102 164.136Z" fill="#24292A" fill-opacity="0.5"/>
<path id="Vector_17" d="M95.8406 47.6551C94.6654 43.7481 92.8824 40.1921 92.4628 36.6581C91.9264 32.9218 93.1586 28.9737 93.1442 25.2058C93.106 22.8003 92.7484 20.3094 92.1882 17.9355C91.8926 16.4878 91.075 15.0717 89.1039 15.4006C87.2495 15.9317 86.2676 17.0381 86.0722 19.039C85.5098 23.6794 86.194 28.1395 87.4002 32.568C89.1046 38.3273 91.9077 43.1825 95.8406 47.6551Z" fill="#24292A" fill-opacity="0.5"/>
<path id="Vector_18" d="M89.4536 144.67C83.6642 147.742 78.2893 145.451 72.8049 144.841C70.2808 144.68 67.7567 144.519 65.1468 144.677C64.1028 144.741 63.0898 145.325 62.1937 146.112C60.4013 147.687 60.6111 149.454 62.7611 150.37C69.0631 152.396 82.463 152.212 89.4536 144.67Z" fill="#24292A" fill-opacity="0.5"/>
<path id="Vector_19" d="M112.009 88.76C109.985 82.9154 112.316 78.0631 114.53 73.0086C115.91 69.7843 117.29 66.56 116.754 62.8237C116.809 61.9829 116.661 61.259 116.427 60.8544C115.641 59.9599 114.737 58.8631 113.779 58.6071C113.14 58.4365 112.073 59.8621 111.698 60.6176C108.946 68.9501 108.078 77.2731 110.374 85.9278C110.639 86.854 111.223 87.8655 111.807 88.8769C111.807 88.8769 111.807 88.8769 112.009 88.76Z" fill="#24292A" fill-opacity="0.5"/>
<path id="Vector_20" d="M93.5675 143.373C92.3829 144.597 91.8061 145.469 90.7932 146.054C87.7543 147.809 84.8322 149.765 81.7623 150.998C78.6924 152.231 76.4949 154.04 75.5201 157.03C74.7718 158.541 74.8648 160.106 76.2901 161.171C77.7155 162.236 78.8142 161.332 79.8272 160.747C85.6714 156.833 90.207 152.057 92.9669 145.608C92.9359 145.087 93.1075 144.448 93.5675 143.373Z" fill="#24292A" fill-opacity="0.5"/>
<path id="Vector_21" d="M97.1947 52.8075C96.8753 52.7221 96.6417 52.3175 96.3223 52.2322C93.6504 51.3473 92.1631 49.239 91.2835 46.7797C90.0845 44.2352 88.8856 41.6907 87.3672 39.0608C86.4328 37.4424 83.9635 36.4405 82.0234 37.2909C80.0832 38.1413 80.293 39.9083 80.7054 41.5583C81.5302 44.8583 83.4848 47.7758 86.7097 49.1507C90.0513 50.7279 93.4788 51.9858 96.7037 53.3607C97.1089 53.1267 96.9921 52.9244 97.1947 52.8075Z" fill="#24292A" fill-opacity="0.5"/>
<path id="Vector_22" d="M165.895 147.47C165.544 146.863 165.194 146.256 164.844 145.649C161.807 140.389 162.86 135.196 165.16 129.822C165.877 127.789 166.914 125.842 167.632 123.81C168.006 123.054 167.422 122.043 167.477 121.202C166.549 121.467 165.389 121.328 164.898 121.881C163.511 123.222 162.24 124.764 161.609 126.478C159.199 133.533 159.485 140.111 164.15 146.319C164.5 146.926 165.053 147.416 165.606 147.906C165.692 147.587 165.692 147.587 165.895 147.47Z" fill="#24292A" fill-opacity="0.5"/>
<path id="Vector_23" d="M110.321 56.8276C114.466 56.0529 118.641 55.7998 122.669 54.8229C124.524 54.2918 126.199 52.5152 127.267 51.0895C127.844 50.2171 127.837 48.3331 127.369 47.5239C127.019 46.917 125.017 46.7243 124.09 46.9899C121.744 48.0742 119.633 49.5631 117.521 51.0521C115.004 52.775 112.807 54.5832 110.406 56.5083C110.406 56.5083 110.406 56.5083 110.321 56.8276Z" fill="#24292A" fill-opacity="0.5"/>
<path id="Vector_24" d="M97.5666 134.861C100.512 131.542 104.011 128.712 103.296 123.731C102.822 121.037 101.537 118.812 100.088 119.109C97.7973 119.353 96.8774 121.502 96.5652 123.301C96.222 124.578 96.6344 126.228 96.6106 127.59C96.8514 129.879 97.2948 132.051 97.5666 134.861Z" fill="#24292A" fill-opacity="0.5"/>
<path id="Vector_25" d="M80.5208 84.2823C76.8669 84.5038 73.3298 84.9275 69.8786 85.032C66.0221 85.3704 63.9104 86.8594 63.0524 90.052C62.6234 91.6484 63.1764 92.1383 64.6566 92.3626C65.1785 92.331 65.8173 92.5017 66.2225 92.2677C71.4661 90.589 76.3284 87.7818 80.5208 84.2823C80.6066 83.9631 80.7234 84.1654 80.5208 84.2823Z" fill="#24292A" fill-opacity="0.5"/>
<path id="Vector_26" d="M102.525 73.7362C100.373 79.8339 103.946 88.8299 109.321 91.1214C108.816 87.9067 108.193 84.4897 107.571 81.0726C107.206 76.6978 105.602 74.3872 102.525 73.7362Z" fill="#24292A" fill-opacity="0.5"/>
<path id="Vector_27" d="M81.6386 73.1177C81.064 66.9759 80.2868 60.9511 75.7151 56.3078C74.4924 55.1257 71.992 53.6022 71.5011 54.1554C69.9971 55.2934 71.1651 57.3164 71.7801 58.8494C72.0137 59.254 72.3641 59.8609 72.8002 60.1486C76.9047 63.9826 79.6769 68.3162 81.6386 73.1177Z" fill="#24292A" fill-opacity="0.5"/>
<path id="Vector_28" d="M84.8947 75.0141C86.2985 70.4274 87.4996 65.9577 85.8572 61.2416C85.4758 60.1132 84.1053 58.2071 83.3807 58.3557C81.9315 58.6529 82.1414 60.4199 82.1176 61.7823C82.1486 62.3039 82.3822 62.7085 82.4132 63.2301C84.1103 67.1054 84.7635 71.0439 84.8947 75.0141Z" fill="#24292A" fill-opacity="0.5"/>
<path id="Vector_29" d="M119.036 90.6372C123.438 88.9048 127.841 87.1723 131.511 83.7045C132.205 83.0344 132.781 82.1619 132.836 81.3211C132.891 80.4802 132.51 79.3518 132.073 79.0642C131.637 78.7765 130.507 79.1591 129.9 79.51C126.229 82.9778 122.559 86.4456 119.005 90.1157C118.802 90.2326 118.919 90.4349 119.036 90.6372Z" fill="#24292A" fill-opacity="0.5"/>
<path id="Vector_30" d="M75.8467 83.2047C71.7804 81.7761 68.0335 80.4329 64.2009 79.4089C62.6039 78.9823 60.7186 78.9919 59.0668 79.406C57.6177 79.7032 57.4771 80.8633 58.6999 82.0455C59.136 82.3331 59.5722 82.6207 60.0084 82.9084C65.2354 84.476 70.3695 84.4789 75.8467 83.2047Z" fill="#24292A" fill-opacity="0.5"/>
<path id="Vector_31" d="M87.8828 135.866C83.0848 132.702 78.2867 129.538 73.4887 126.375C72.1801 125.512 71.284 126.299 70.5046 127.288C69.5226 128.395 70.1924 129.087 71.0648 129.662C76.0964 133.231 82.2196 134.011 87.8828 135.866Z" fill="#24292A" fill-opacity="0.5"/>
<path id="Vector_32" d="M91.0934 133.473C87.5729 130.651 84.0524 127.828 80.3293 125.122C79.7763 124.633 78.444 125.132 77.7194 125.281C77.8672 126.004 77.7266 127.165 78.077 127.771C78.4274 128.378 79.0971 129.071 79.8527 129.444C83.1086 131.34 86.8865 133.205 90.5476 134.867C90.6334 134.548 90.9218 134.112 91.0934 133.473Z" fill="#24292A" fill-opacity="0.5"/>
<path id="Vector_33" d="M168.711 133.166C164.052 135.856 164.555 146.085 169.734 150.378C166.845 145.842 167.236 141.84 169.512 137.828C170.058 136.434 170.168 134.753 168.711 133.166Z" fill="#24292A" fill-opacity="0.5"/>
<path id="Vector_34" d="M118.116 92.7868C122.955 91.3419 128.291 91.2279 132.515 88.25C132.92 88.0161 133.177 87.0583 133.349 86.4198C132.71 86.2491 132.157 85.7592 131.433 85.9078C130.591 85.8541 129.983 86.205 129.259 86.3536C125.612 88.459 121.965 90.5644 118.116 92.7868Z" fill="#24292A" fill-opacity="0.5"/>
<path id="Vector_35" d="M117.728 89.7743C120.409 85.529 126.058 83.6163 126.878 78.0181C126.761 77.8158 126.325 77.5282 126.208 77.3259C125.195 77.9108 123.746 78.208 123.169 79.0804C121.064 82.4533 119.077 86.0285 117.292 89.4867C117.292 89.4867 117.408 89.689 117.728 89.7743Z" fill="#24292A" fill-opacity="0.5"/>
<path id="Vector_36" d="M88.4424 138.24C84.5787 136.695 80.5124 135.266 76.4462 133.838C75.8074 133.667 75.1996 134.018 74.5918 134.369C74.9422 134.976 74.7706 135.614 75.2068 135.902C77.9407 137.83 80.932 138.8 84.3833 138.696C85.7467 138.718 87.1958 138.42 88.4424 138.24Z" fill="#24292A" fill-opacity="0.5"/>
<path id="Vector_37" d="M104.426 47.5536C105.572 43.9247 106.719 40.2958 107.865 36.6669C108.037 36.0284 107.25 35.1339 106.783 34.3247C106.089 34.9948 104.96 35.3774 104.905 36.2182C104.397 40.0177 104.209 43.9026 103.904 47.5852C104.107 47.4682 104.426 47.5536 104.426 47.5536Z" fill="#24292A" fill-opacity="0.5"/>
<path id="Vector_38" d="M105.415 48.3311C108.103 45.9697 110.036 43.2353 111.736 40.0963C111.938 39.9794 111.44 38.6486 111.004 38.361C110.685 38.2757 109.757 38.5412 109.15 38.8921C108.947 39.0091 108.659 39.4453 108.573 39.7646C107.598 42.7549 106.507 45.543 105.415 48.3311Z" fill="#24292A" fill-opacity="0.5"/>
<path id="Vector_39" d="M103.528 55.355C103.84 53.5563 104.503 52.3646 104.238 51.4384C103.74 50.1077 102.486 48.404 100.865 49.3397C99.8524 49.9245 99.7738 52.1278 99.9526 53.3732C100.1 54.097 102.017 54.609 103.528 55.355Z" fill="#24292A" fill-opacity="0.5"/>
<path id="Vector_40" d="M68.0838 70.6939C70.4745 73.899 73.6994 75.2739 77.1269 76.5318C75.0793 72.0496 70.3981 69.088 68.0838 70.6939Z" fill="#24292A" fill-opacity="0.5"/>
<path id="Vector_41" d="M96.1078 140.288C96.2794 139.65 96.6536 138.894 96.389 137.968C96.2102 136.723 93.8266 135.401 92.9305 136.188C92.4395 136.742 91.7769 137.933 91.9247 138.657C92.1035 139.903 94.2534 140.819 96.1078 140.288Z" fill="#24292A" fill-opacity="0.5"/>
<path id="Vector_42" d="M103.087 46.1691C103.251 43.6466 103.618 41.0072 103.58 38.6017C103.549 38.0801 102.762 37.1856 102.209 36.6956C101.835 37.4511 100.939 38.2383 101.087 38.9622C101.444 41.453 102.005 43.8269 102.362 46.3177C102.767 46.0838 102.884 46.2861 103.087 46.1691Z" fill="#24292A" fill-opacity="0.5"/>
<path id="Vector_43" d="M78.5355 80.8433C80.4518 81.3553 81.7604 82.2182 82.3682 81.8673C82.9759 81.5164 83.2023 80.0371 83.6623 78.9623C82.5873 78.504 81.5982 77.7265 80.5542 77.7897C80.149 78.0237 79.6033 79.4177 78.5355 80.8433Z" fill="#24292A" fill-opacity="0.5"/>
<path id="Vector_44" d="M116.207 94.1588C114.93 93.8175 114.174 93.4445 113.333 93.3908C113.075 94.3486 112.499 95.2211 112.646 95.9449C112.677 96.4665 114.189 97.2124 114.796 96.8615C115.521 96.7129 115.661 95.5528 116.207 94.1588Z" fill="#24292A" fill-opacity="0.5"/>
<path id="Vector_45" d="M99.123 41.1749C98.1173 43.6437 99.6904 45.4327 100.944 47.1364C101.147 47.0195 101.466 47.1048 101.669 46.9878C101.023 44.9332 100.696 42.9639 100.05 40.9093C99.8476 41.0263 99.645 41.1433 99.123 41.1749Z" fill="#24292A" fill-opacity="0.5"/>
</g>
</svg>
