<svg width="163" height="274" viewBox="0 0 163 274" fill="none" xmlns="http://www.w3.org/2000/svg">
<g id="Group">
<path id="Vector" d="M109.816 218.251C111.725 216.879 113.751 215.71 115.66 214.338C126.538 206.978 138.568 204.888 151.188 205.694C170.54 206.929 190.118 206.684 209.572 204.354C218.212 203.411 226.79 201.426 235.602 199.845C236.124 199.813 236.529 199.579 237.02 199.026C232.758 199.598 228.582 199.851 224.437 200.626C213.335 202.451 202.281 201.55 191.312 200.331C176.861 198.694 162.495 196.738 147.911 198.145C136.341 199.161 125.768 202.837 117.36 211.199C114.991 213.645 112.271 215.485 109.583 217.847C109.583 217.847 109.699 218.049 109.816 218.251Z" fill="#24292A" fill-opacity="0.5"/>
<g id="Group_2">
<path id="Vector_2" d="M165.907 171.301C164.599 170.438 163.493 169.459 162.301 168.798C160.354 167.764 158.351 167.572 156.793 169.551C155.234 171.529 156.083 173.467 157.508 174.532C161.465 177.642 165.421 180.753 169.869 183.31C177.689 187.965 186.601 189.833 195.63 191.903C192.608 190.411 189.905 189.005 186.882 187.513C179.327 183.783 172.464 179.384 166.842 172.92C166.608 172.515 166.258 171.908 165.907 171.301Z" fill="#24292A" fill-opacity="0.5"/>
<g id="Group_3">
<path id="Vector_3" d="M99.4813 155.436C92.8527 151.441 86.005 150.809 79.0238 153.222C76.7643 153.987 74.419 155.071 72.3072 156.56C63.6029 163.473 63.0002 172.722 71.4118 180.274C80.1427 187.91 90.3084 191.482 102.276 188.349C102.884 187.998 103.406 187.966 103.896 187.413C97.3991 187.388 91.1043 187.246 85.0835 182.9C90.1317 183.222 94.5412 183.374 99.0674 183.727C99.1532 183.408 99.239 183.089 99.3248 182.77C93.9572 182.362 88.6754 181.635 85.7245 176.056C87.524 176.366 89.5261 176.559 91.7619 177.156C88.8802 174.504 84.6423 173.714 84.6827 169.105C90.1289 167.31 93.0726 171.005 96.8815 173.391C95.1915 171.4 93.7042 169.291 91.8974 167.098C99.4698 167.581 102.335 173.479 105.894 178.707C106.635 175.312 102.173 168.987 93.2081 160.946C103.452 162.314 105.951 170.852 110.007 177.411C110.21 177.294 110.615 177.06 110.935 177.146C110.141 174.367 109.464 171.791 108.467 169.129C107.471 166.468 105.953 163.838 105.159 161.059C110.026 167.15 111.302 174.506 113.333 182.235C114.448 178.084 114.753 174.402 114.014 170.782C112.653 163.746 110.248 156.773 105.411 151.203C105.061 150.597 104.508 150.107 103.869 149.936C102.272 149.509 100.589 149.402 99.1093 149.178C99.0855 150.54 98.9449 151.7 98.9211 153.062C99.0689 153.786 99.2167 154.51 99.4813 155.436Z" fill="#24292A" fill-opacity="0.5"/>
<path id="Vector_4" d="M133.75 113.264C133.064 115.818 132.58 118.255 132.213 120.895C133.648 116.829 135.955 113.34 139.656 110.393C139.601 111.234 139.43 111.873 139.375 112.713C141.37 111.022 143.076 109.767 144.869 108.193C145.188 108.278 145.305 108.481 145.624 108.566C144.244 111.79 142.662 115.131 141.079 118.473C142.498 117.654 143.799 116.633 145.505 115.378C144.078 121.327 139.769 124.624 136.215 128.294C136.332 128.497 136.449 128.699 136.565 128.901C140.009 126.913 143.57 125.127 147.217 123.021C143.585 128.894 138.73 133.586 131.749 135.998C132.302 136.488 132.738 136.775 132.94 136.658C138.036 134.256 143.482 132.46 148.345 129.653C153.612 126.612 156.434 121.206 158.298 115.545C159.873 110.32 160.895 104.604 160.788 99.2719C160.845 91.4168 153.811 87.6555 146.806 91.4301C139.193 95.5556 133.909 101.843 130.401 109.803C128.561 114.102 127.477 118.774 125.87 123.477C126.19 123.563 126.509 123.648 126.829 123.733C128.816 120.158 131.123 116.668 133.314 112.976C133.431 113.178 133.431 113.178 133.75 113.264Z" fill="#24292A" fill-opacity="0.5"/>
<path id="Vector_5" d="M97.042 56.2349C99.9187 49.9886 102.476 43.657 107.97 39.1365C106.995 42.1268 105.903 44.9149 104.929 47.9052C107.438 44.2984 109.395 40.2017 113.938 37.3091C113.018 39.4586 112.067 41.0866 111.435 42.7999C111.435 42.7999 111.552 43.0022 111.755 42.8852C113.836 40.8747 115.714 38.9812 117.794 36.9707C118.159 41.3455 115.299 44.3454 113.545 48.3252C114.846 47.3041 116.148 46.2831 117.652 45.145C117.549 48.7107 114.26 53.3069 108.392 58.5829C108.509 58.7852 108.626 58.9875 108.743 59.1898C110.652 57.8178 112.475 56.7651 114.384 55.3932C116.293 54.0212 117.969 52.2446 120.314 51.1603C118.872 53.3415 117.867 55.8102 116.105 57.9061C114.546 59.8849 112.349 61.6931 110.237 63.1821C108.125 64.671 105.461 65.67 103.03 67.0736C111.436 65.7266 119.142 63.1658 124.597 56.2398C130.341 48.8775 131.817 40.2037 132.014 31.1885C131.952 30.1454 131.773 28.9 131.509 27.9738C130.272 23.0237 126.346 20.4351 121.274 21.4753C116.926 22.3669 113.397 24.6746 110.1 27.3869C100.671 34.4491 97.404 44.6972 97.042 56.2349Z" fill="#24292A" fill-opacity="0.5"/>
<path id="Vector_6" d="M58.9655 118.948C52.9353 119.732 47.5057 118.281 42.3024 115.351C44.7097 115.31 47.1171 115.269 49.4076 115.025C49.4934 114.706 49.4934 114.706 49.5792 114.387C45.4581 113.799 41.2203 113.009 38.3623 108.995C41.7278 109.21 44.5713 109.456 47.4148 109.702C44.4783 107.891 40.3025 108.144 39.3847 103.28C42.4618 103.931 45.5389 104.582 48.616 105.233C47.9462 104.541 47.3932 104.051 46.4898 102.954C51.4213 103.074 54.5366 106.13 57.8235 108.548C58.0261 108.431 58.2287 108.314 58.3145 107.995C55.6043 104.704 52.6916 101.531 49.8647 98.0383C53.4328 98.1361 56.4551 99.6279 58.9864 101.673C61.5177 103.718 63.5581 106.316 66.323 108.766C63.6367 104.113 61.5581 99.1092 58.0614 94.9243C52.9916 88.9502 45.6766 87.5092 38.2521 87.7498C35.3228 87.8226 32.5412 88.6193 29.7597 89.416C23.1838 91.5943 22.395 97.714 23.8038 102.026C26.2089 108.999 30.609 114.28 37.004 117.871C43.1654 121.057 49.7486 120.763 56.2698 119.425C57.3447 119.884 58.2409 119.096 58.9655 118.948Z" fill="#24292A" fill-opacity="0.5"/>
<path id="Vector_7" d="M92.7526 72.1981C85.9149 89.3626 87.7793 106.628 92.3156 124.778C85.5774 122.465 79.2754 120.439 72.9734 118.413C72.7708 118.53 72.8876 118.732 72.685 118.849C77.7405 121.055 82.4217 124.017 87.532 125.382C92.3228 126.662 95.2045 129.314 97.4547 133.679C104.119 147.094 113.472 158.148 124.821 167.51C130.67 172.495 137.906 176.139 144.332 180.251C145.641 181.114 147.269 182.062 148.897 183.01C138.44 186.89 128.234 187.927 117.671 186.473C124.323 189.106 131.257 189.419 138.214 188.369C142.359 187.594 146.792 186.383 150.937 185.609C152.386 185.311 154.069 185.419 155.144 185.877C166.508 191.993 178.988 193.959 191.321 195.2C201.651 196.249 211.981 197.298 222.358 195.622C232.736 193.946 243.23 192.473 252.9 187.699C253.508 187.348 254.116 186.998 254.723 186.647C255.129 186.413 255.214 186.093 255.908 185.423C251.911 186.922 248.436 188.389 244.844 189.653C227.259 195.221 209.426 196.616 190.994 193.231C175.959 190.583 161.439 186.019 147.838 179.306C141.474 176.237 135.165 172.327 129.666 167.949C122.392 161.899 121.981 153.235 122.934 144.593C123.247 142.794 123.356 141.113 123.583 139.633C120.823 146.082 120.704 152.894 120.382 159.823C97.1115 134.956 84.2422 107.052 92.7526 72.1981Z" fill="#24292A" fill-opacity="0.5"/>
<path id="Vector_8" d="M212.34 192.775C208.329 190.505 204.317 188.236 200.711 185.733C186.433 176.443 179.683 163.348 181.27 145.978C181.52 143.136 181.856 139.975 181.989 136.931C181.927 135.888 181.312 134.355 180.557 133.982C179.801 133.609 178.15 134.023 177.339 134.491C171.323 139.043 169.607 145.428 170.244 152.613C171.269 162.811 176.868 170.637 183.886 177.645C191.339 184.94 200.203 189.532 210.019 192.497C210.657 192.667 211.296 192.838 211.818 192.806C211.935 193.009 212.137 192.892 212.34 192.775Z" fill="#24292A" fill-opacity="0.5"/>
<path id="Vector_9" d="M99.8194 69.4667C102.46 69.83 105.218 70.3957 108.062 70.6421C115.751 71.3277 123.144 70.5655 129.83 66.7056C132.058 65.419 133.936 63.5254 135.293 61.6636C136.072 60.6741 135.831 58.3856 135.216 56.8525C134.484 55.1172 132.396 55.2437 130.861 55.8602C128.314 57.0615 125.68 58.5821 123.249 59.9857C119.4 62.208 115.784 64.835 111.904 66.5358C108.834 67.7688 105.382 67.8732 102.165 68.3823C100.194 68.7112 98.1914 68.5184 96.1035 68.645C96.0177 68.9643 95.9319 69.2835 95.9319 69.2835C99.7098 71.1483 103.168 72.9278 106.946 74.7926C108.893 75.8261 110.927 76.5404 112.843 77.0524C113.801 77.3084 114.697 76.5213 115.827 76.1387C115.36 75.3295 115.267 73.7648 114.511 73.3919C113.086 72.3267 111.372 71.6978 109.573 71.3881C106.293 70.854 103.013 70.32 99.8504 69.9882C99.531 69.9029 99.6168 69.5836 99.8194 69.4667Z" fill="#24292A" fill-opacity="0.5"/>
<path id="Vector_10" d="M63.6638 118.663C62.8534 119.131 62.534 119.046 62.1288 119.28C56.5182 123.598 50.426 123.339 44.0382 121.632C40.8443 120.779 37.5647 120.245 34.316 120.232C31.9086 120.274 29.0413 121.39 26.9296 122.879C25.8309 123.783 24.9109 125.932 24.9181 127.816C24.9253 129.7 26.8726 130.734 28.6722 131.043C35.2626 132.633 41.5812 131.413 47.9545 129.351C54.4447 127.492 59.7121 124.451 63.6638 118.663Z" fill="#24292A" fill-opacity="0.5"/>
<path id="Vector_11" d="M165.907 171.301C172.131 175.53 178.151 179.876 184.258 183.903C190.801 188.218 198.209 191.223 205.96 192.952C204.332 192.004 202.821 191.258 201.31 190.512C188.146 184.086 177.148 175.331 170.078 162.15C169.26 160.734 168.965 159.286 168.147 157.87C166.979 155.847 165.437 154.58 162.858 155.259C160.279 155.939 160.201 158.142 160.325 160.229C160.542 163.88 162.699 166.68 164.739 169.278C165.004 170.204 165.557 170.694 165.907 171.301Z" fill="#24292A" fill-opacity="0.5"/>
<path id="Vector_12" d="M124.628 132.556C121.125 126.487 123.83 120.879 125.693 115.218C126.668 112.227 128.165 109.205 128.703 105.927C128.985 103.607 128.627 101.116 128.067 98.7424C127.304 96.4855 125.006 94.845 122.833 95.2908C120.339 95.6513 119.739 97.8862 119.543 99.8871C118.934 107.252 117.802 114.649 119.802 121.856C120.564 124.113 121.008 126.285 121.973 128.424C122.588 129.958 123.811 131.14 124.628 132.556Z" fill="#24292A" fill-opacity="0.5"/>
<path id="Vector_13" d="M126.677 137.038C126.856 138.283 126.684 138.922 127.034 139.529C129.837 144.384 132.641 149.239 138.249 151.935C142.23 153.683 146 153.664 150.083 151.846C153.153 150.613 153.661 146.814 151.332 144.652C148.1 141.393 144.064 140.486 139.6 141.175C134.817 141.779 130.695 141.191 126.677 137.038Z" fill="#24292A" fill-opacity="0.5"/>
<path id="Vector_14" d="M67.022 116.994C63.1799 121.1 59.2211 125.004 55.5816 128.994C54.8022 129.983 54.0229 130.972 53.3603 132.164C51.9494 134.867 52.338 137.879 54.3163 139.434C56.1778 140.787 59.1071 140.714 61.5073 138.789C66.5101 134.822 67.9686 129.394 67.8302 123.54C67.9088 121.337 67.3486 118.963 67.022 116.994Z" fill="#24292A" fill-opacity="0.5"/>
<path id="Vector_15" d="M68.6591 112.812C68.2489 104.147 67.1141 95.6318 62.7926 88.1468C60.9238 84.91 57.9253 82.0558 55.0436 79.4039C53.8208 78.2217 51.9045 77.7097 50.2218 77.6023C49.061 77.4633 47.3545 78.7183 46.7777 79.5908C46.3177 80.6655 46.8469 82.5178 47.6335 83.4124C48.7704 84.9138 50.3126 86.1813 52.0573 87.3318C59.9945 92.1898 64.1134 99.7918 67.2193 107.979C68.0369 109.395 68.2467 111.162 68.6591 112.812Z" fill="#24292A" fill-opacity="0.5"/>
<path id="Vector_16" d="M134.108 138.681C140.465 139.866 146.938 141.254 153.367 138.352C156.031 137.353 158.665 135.832 161.182 134.109C162.686 132.971 164.159 131.312 164.674 129.396C165.134 128.321 164.168 126.181 163.265 125.084C162.128 123.583 160.39 124.316 158.972 125.135C157.671 126.156 156.167 127.294 154.866 128.315C150.182 132.368 145.351 135.697 138.916 136.715C137.264 137.129 135.612 137.543 133.96 137.957C134.077 138.16 133.991 138.479 134.108 138.681Z" fill="#24292A" fill-opacity="0.5"/>
<path id="Vector_17" d="M123.616 133.141C122.713 132.044 122.362 131.437 121.809 130.947C118.461 127.486 116.53 123.206 115.931 118.427C115.574 115.936 114.492 113.593 113.004 111.485C111.283 108.972 108.526 108.407 106.383 109.374C104.24 110.341 103.468 113.215 104.379 116.195C106.581 123.285 111.761 127.578 118.039 130.966C119.55 131.712 121.264 132.341 123.616 133.141Z" fill="#24292A" fill-opacity="0.5"/>
<path id="Vector_18" d="M111.297 188.535C108.203 191.13 104.907 193.842 101.813 196.438C99.2105 198.48 96.2026 200.756 96.739 204.492C96.9488 206.259 98.2335 208.484 99.6589 209.55C101.053 210.093 103.749 209.616 105.05 208.595C110.404 205.234 111.223 199.636 111.724 193.953C111.716 192.069 111.507 190.302 111.297 188.535Z" fill="#24292A" fill-opacity="0.5"/>
<path id="Vector_19" d="M93.5654 64.716C93.5034 63.6729 93.3866 63.4706 93.3866 63.4706C89.5633 57.3163 89.1603 50.536 89.0766 43.841C89.0456 43.3194 89.0146 42.7978 88.9836 42.2763C88.5712 40.6263 88.4472 38.54 86.1257 38.262C83.8042 37.9839 82.3002 39.1219 81.2635 41.0692C78.5274 46.1554 80.084 51.1908 83.4639 55.1734C86.174 58.4639 89.8971 61.1695 93.5654 64.716Z" fill="#24292A" fill-opacity="0.5"/>
<path id="Vector_20" d="M68.6587 112.812C72.2815 112.069 74.4171 109.217 75.3918 106.227C76.4524 102.917 77.2793 99.2032 77.4985 95.8399C77.8035 92.1573 75.2102 89.0691 72.8029 89.1103C70.7149 89.2369 68.782 91.9713 68.999 95.6222C69.0682 98.5493 69.7452 101.125 69.8144 104.053C69.681 107.097 69.1114 109.853 68.6587 112.812Z" fill="#24292A" fill-opacity="0.5"/>
<path id="Vector_21" d="M93.6679 61.1503C94.7212 55.9567 95.9461 50.1246 96.9685 44.4095C97.3355 41.77 97.2663 38.8429 97.1112 36.2351C97.0182 34.6704 96.0839 33.052 94.1127 33.3809C92.3442 33.5927 91.1596 34.8161 91.1669 36.7001C91.0811 37.0193 90.9953 37.3386 91.1121 37.5409C91.6939 45.5666 92.6809 53.3585 93.6679 61.1503C93.5821 61.4695 93.6989 61.6718 93.6679 61.1503Z" fill="#24292A" fill-opacity="0.5"/>
</g>
<path id="Vector_22" d="M174.121 187.868C171.418 186.461 168.63 185.374 165.81 183.765C162.757 181.752 159.789 179.419 157.141 177.172C155.832 176.309 154.812 175.01 153.504 174.147C152.515 173.369 151.237 173.028 149.874 173.006C149.032 172.952 147.817 173.654 147.443 174.409C147.154 174.846 147.652 176.176 148.408 176.549C150.386 178.104 152.481 179.862 154.748 180.981C160.995 183.847 167.531 186.278 173.864 188.825C173.95 188.506 174.035 188.187 174.121 187.868Z" fill="#24292A" fill-opacity="0.5"/>
</g>
</g>
</svg>
