<svg width="143" height="233" viewBox="0 0 143 233" fill="none" xmlns="http://www.w3.org/2000/svg">
<g id="Group">
<path id="Vector" d="M101.952 116.376C106.266 121.977 106.724 127.916 105.094 133.982C102.894 142.805 97.4076 149.209 88.6889 152.355C78.4353 156.117 70.3193 150.014 71.2343 138.966C72.0086 129.078 82.0856 117.056 91.9961 114.571C92.7206 114.423 93.562 114.477 94.606 114.413C92.1201 116.658 89.72 118.583 87.756 120.796C83.7114 125.019 83.366 133.31 87.0963 137.9C90.4762 141.883 95.7819 141.247 98.9541 136.448C100.973 133.395 101.511 130.117 101.731 126.753C101.95 123.39 101.966 120.144 101.952 116.376Z" fill="#24292A" fill-opacity="0.5"/>
<path id="Vector_2" d="M126.877 80.9461C113.017 82.2049 101.288 71.7141 97.1617 62.2282C93.97 54.3606 97.3997 48.6043 105.72 47.5765C114.68 46.7195 121.683 49.9591 127.422 56.6254C131.005 60.4911 133.372 65.0586 134.609 70.0087C135.169 72.3826 135.324 74.9904 135.565 77.279C133.391 77.7248 133.212 76.4793 132.831 75.3509C131.329 69.4747 128.004 64.6512 123.378 60.8487C119.624 57.6215 115.534 57.5553 111.801 59.98C111.193 60.3309 110.531 61.5226 110.678 62.2465C110.583 67.6961 113.558 71.9127 117.717 74.9059C120.28 77.4725 123.621 79.0497 126.877 80.9461Z" fill="#24292A" fill-opacity="0.5"/>
<path id="Vector_3" d="M192.285 164.292C191.701 163.281 191.234 162.471 190.65 161.46C186.765 154.263 181.983 147.852 175.207 143.133C168.983 138.904 162.19 137.431 154.883 137.874C151.548 138.181 148.214 138.488 144.996 138.997C139.285 139.867 134.54 142.876 130.814 147.185C128.243 149.748 126.427 152.685 124.291 155.536C124.003 155.973 123.512 156.526 123.223 156.962C122.904 156.877 122.585 156.791 122.585 156.791C122.897 154.993 123.006 153.311 123.755 151.8C129.298 137.541 143.332 128.629 158.648 128.957C169.758 129.017 177.523 134.513 183.098 143.702C184.383 145.927 186.19 148.121 187.272 150.463C189.32 154.945 191.048 159.342 193.095 163.824C192.893 163.941 192.488 164.175 192.285 164.292Z" fill="#24292A" fill-opacity="0.5"/>
<path id="Vector_4" d="M51.0412 114.751C50.3166 114.899 49.592 115.048 49.07 115.079C43.967 115.598 39.9152 117.937 36.8835 121.576C33.9376 124.895 33.7184 128.258 36.0781 130.942C39.2244 134.52 42.6209 135.256 46.3534 132.832C48.5819 131.545 50.3433 129.449 52.3072 127.236C51.7852 127.268 51.5826 127.385 50.4218 127.246C51.6922 125.703 52.6742 124.597 53.6561 123.491C53.7729 123.693 53.9755 123.576 54.0923 123.778C54.0065 124.097 53.8349 124.736 53.7491 125.055L54.0685 125.141C54.9337 123.832 55.5962 122.64 56.4614 121.331C57.341 123.791 56.421 125.94 55.3843 127.887C50.0599 138.784 38.1927 145.365 25.6745 140.994C20.5333 139.108 19.1007 136.158 20.4734 131.05C22.1894 124.665 26.234 120.442 31.9066 117.166C37.8676 113.455 44.4508 113.161 51.0412 114.751Z" fill="#24292A" fill-opacity="0.5"/>
<path id="Vector_5" d="M137.861 85.9337C139.939 90.9374 142.018 95.9412 144.501 100.711C145.319 102.127 146.573 103.831 148.084 104.577C155.203 108.019 161.372 113.089 167.136 118.393C177.907 128.627 185.553 140.936 191.493 154.499C191.875 155.628 192.256 156.756 192.435 158.002C190.8 155.17 189.367 152.22 187.732 149.388C182.445 139.763 175.943 130.84 168.342 122.821C161.294 115.292 152.889 109.625 143.331 105.702C136.562 102.867 129.535 100.99 122.283 100.592C116.829 100.504 111.702 102.385 107.159 105.277C105.656 106.415 104.121 107.032 102.5 107.968C102.383 107.765 102.149 107.361 102.033 107.158C105.36 104.968 108.687 102.777 112.505 100.033C93.4805 100.767 75.1873 103.237 59.3065 114.564C59.1897 114.361 58.9561 113.957 58.8393 113.754C60.951 112.265 62.946 110.574 64.8551 109.202C67.2862 107.799 69.5147 106.512 71.9458 105.108C74.2912 104.024 76.6365 102.94 79.0986 102.058C81.5607 101.176 84.0228 100.294 86.6875 99.2946C84.242 96.9303 81.9133 94.7683 79.4677 92.404C79.6703 92.287 79.7561 91.9677 79.9587 91.8508C82.1397 93.2889 84.2038 94.5248 85.9795 96.1968C88.3083 98.3589 90.7466 98.8392 94.1669 98.2132C102.776 96.7492 111.478 96.8499 120.211 97.4722C127.581 98.0724 134.81 99.8327 141.751 102.029C142.187 102.317 142.39 102.2 143.348 102.456C141.324 96.6114 139.331 91.2883 137.339 85.9653C137.339 85.9653 137.658 86.0506 137.861 85.9337Z" fill="#24292A" fill-opacity="0.5"/>
<path id="Vector_6" d="M72.4439 83.5125C70.1462 81.8721 67.8484 80.2316 65.6675 78.7935C65.1145 78.3036 64.3589 77.9306 63.7202 77.7599C61.8348 77.7695 60.0663 77.9814 58.1809 77.991C58.4765 79.4387 58.367 81.1203 59.0677 82.3341C60.4145 85.6025 63.351 87.4136 66.5759 88.7885C61.5277 88.4663 56.7678 87.7079 52.9827 83.9592C50.1868 80.988 49.6504 77.2517 51.5524 73.9958C53.4853 71.2614 56.8746 70.1138 60.6214 71.4571C66.604 73.3976 70.015 77.9019 72.4439 83.5125Z" fill="#24292A" fill-opacity="0.5"/>
<path id="Vector_7" d="M104.135 110.8C108.957 112.601 113.748 113.881 117.214 117.545C120.765 120.889 123.623 124.903 123.411 130.15C123.473 131.194 122.639 133.024 122.031 133.375C120.901 133.757 119.102 133.448 118.315 132.553C116.54 130.881 114.935 128.57 113.853 126.228C111.222 120.734 109.198 114.89 104.135 110.8Z" fill="#24292A" fill-opacity="0.5"/>
<path id="Vector_8" d="M58.0341 123.12C59.6599 131.083 56.7832 137.329 52.8316 143.117C50.5245 146.607 47.867 149.49 43.8699 150.989C43.2621 151.339 42.335 151.605 41.6104 151.754C40.0444 151.849 38.5643 151.624 37.8325 149.889C37.1007 148.153 38.0827 147.047 39.384 146.026C41.2932 144.654 43.3191 143.484 44.9088 142.027C51.0104 137.156 56.559 131.794 58.0341 123.12Z" fill="#24292A" fill-opacity="0.5"/>
<path id="Vector_9" d="M105.629 114.792C108.058 120.403 111.009 125.982 112.83 131.943C114.387 136.979 113.887 142.662 110.075 147.29L109.873 147.407C108.657 148.109 107.239 148.928 106.14 149.832C105.525 148.299 104.388 146.797 104.295 145.233C104.288 143.349 104.803 141.433 105.637 139.603C107.906 133.707 108.695 127.588 106.437 121.338C105.792 119.284 105.668 117.198 105.224 115.026C105.427 114.909 105.629 114.792 105.629 114.792Z" fill="#24292A" fill-opacity="0.5"/>
<path id="Vector_10" d="M127.96 83.2885C120.831 84.9768 113.733 87.1867 106.154 84.8195C103.482 83.9345 100.981 82.411 98.2784 81.0045C97.8422 80.7169 97.0556 79.8224 96.9078 79.0985C96.8458 78.0554 96.7528 76.4907 97.4464 75.8205C98.1399 75.1504 99.7059 75.0554 100.664 75.3114C103.219 75.9941 105.572 76.7937 107.838 77.9126C114.319 81.1839 120.738 83.4121 127.96 83.2885Z" fill="#24292A" fill-opacity="0.5"/>
<path id="Vector_11" d="M162.727 141.168C158.084 140.612 153.705 140.982 149.536 143.119C143.022 146.34 137.731 150.744 134.566 157.426C133.646 159.576 131.885 161.672 130.209 163.448C129.835 164.204 128.183 164.618 127.428 164.245C126.555 163.67 126.057 162.339 125.793 161.413C125.847 160.572 126.307 159.497 126.798 158.944C132.995 148.623 141.816 141.912 153.877 140.343C156.775 139.749 159.735 140.197 162.781 140.327C162.696 140.646 162.61 140.965 162.727 141.168Z" fill="#24292A" fill-opacity="0.5"/>
<path id="Vector_12" d="M48.3066 112.823C44.3334 112.959 40.3291 112.573 36.7062 113.316C33.0834 114.059 29.8729 116.452 26.281 117.717C24.0215 118.482 21.5284 118.842 19.2378 119.086C17.7887 119.383 15.9891 119.073 15.8651 116.987C15.5385 115.018 16.4037 113.709 18.1413 112.976C22.4267 111.041 26.7742 110.149 31.3552 109.662C37.0112 109.634 42.7292 110.648 48.3066 112.823Z" fill="#24292A" fill-opacity="0.5"/>
<path id="Vector_13" d="M137.35 73.8208C138.225 67.3818 134.292 62.9092 131.808 58.1394C130.843 55.9994 129.963 53.5402 129.084 51.081C128.819 50.1548 129.162 48.8778 129.42 47.92C130.223 45.5682 131.991 45.3563 133.448 46.943C137.848 52.2248 142.277 65.0425 137.35 73.8208Z" fill="#24292A" fill-opacity="0.5"/>
<path id="Vector_14" d="M92.6043 114.221C86.4263 114.281 82.4674 118.185 78.5086 122.089C75.9369 124.653 73.2484 127.014 69.5087 127.555C68.7841 127.703 68.0595 127.852 67.4208 127.681C66.6652 127.308 65.2708 126.765 64.4842 125.87C64.2506 125.466 64.8822 123.752 65.6926 123.285C72.6903 117.626 80.3341 114.022 89.091 113.282C90.3375 113.102 91.4125 113.56 92.4565 113.497C92.5733 113.699 92.4875 114.018 92.6043 114.221Z" fill="#24292A" fill-opacity="0.5"/>
<path id="Vector_15" d="M137.715 78.1956C138.463 76.6846 139.04 75.8121 139.18 74.652C139.922 71.2571 140.663 67.8621 140.882 64.4988C140.899 61.2525 141.788 58.5814 144.273 56.3369C145.575 55.3159 146.907 54.8164 148.418 55.5623C150.046 56.5105 149.617 58.1068 149.274 59.3839C147.675 65.9715 144.681 72.0155 139.507 76.6213C139.016 77.1745 138.611 77.4084 137.715 78.1956Z" fill="#24292A" fill-opacity="0.5"/>
<path id="Vector_16" d="M53.6124 112.187C53.293 112.101 52.9736 112.016 52.74 111.612C50.9333 109.418 48.4949 108.938 45.854 108.574C43.0105 108.328 40.167 108.081 37.4093 107.516C35.524 107.525 33.834 105.534 34.0294 103.533C34.108 101.33 35.7597 100.916 37.3257 100.821C40.777 100.716 44.1735 101.453 46.619 103.817C49.1813 106.383 51.5411 109.067 53.9008 111.751C53.815 112.07 53.6124 112.187 53.6124 112.187Z" fill="#24292A" fill-opacity="0.5"/>
<path id="Vector_17" d="M166.076 144.629C165.437 144.458 164.596 144.405 163.957 144.234C157.919 143.134 153.377 146.027 149.301 149.728C147.711 151.186 146.238 152.845 144.329 154.217C143.752 155.09 142.592 154.951 141.867 155.099C141.602 154.173 141.221 153.045 141.509 152.609C142.344 150.778 143.497 149.033 144.682 147.81C150.378 143.172 156.868 141.313 164.331 143.478C164.97 143.649 165.523 144.139 166.162 144.31C166.076 144.629 166.076 144.629 166.076 144.629Z" fill="#24292A" fill-opacity="0.5"/>
<path id="Vector_18" d="M61.7187 123.421C62.4887 127.561 63.578 131.788 64.0286 135.843C64.2384 137.61 63.1159 139.877 62.1649 141.505C61.5881 142.377 59.7338 142.908 58.7756 142.652C57.9343 142.599 57.0857 140.661 57.1405 139.82C57.5075 137.181 57.9912 134.743 58.6776 132.189C59.4498 129.316 60.5413 126.528 61.3135 123.655C61.5161 123.538 61.5161 123.538 61.7187 123.421Z" fill="#24292A" fill-opacity="0.5"/>
<path id="Vector_19" d="M130.779 84.8973C128.589 88.5894 127.271 92.8568 122.518 93.9824C119.822 94.4598 117.384 93.9795 117.088 92.5318C116.528 90.1579 118.118 88.7006 119.941 87.6479C121.157 86.9461 122.606 86.6489 124.055 86.3517C126.229 85.9059 128.403 85.46 130.779 84.8973Z" fill="#24292A" fill-opacity="0.5"/>
<path id="Vector_20" d="M77.6156 85.9209C76.674 82.4186 75.7324 78.9162 74.5883 75.5309C73.6467 72.0285 74.333 69.4744 77.0525 67.6346C78.1513 66.7305 78.9069 67.1034 79.6077 68.3172C79.8413 68.7218 80.0748 69.1264 80.1058 69.648C80.4469 75.3852 79.5103 80.781 77.6156 85.9209C77.2104 86.1549 77.5298 86.2402 77.6156 85.9209Z" fill="#24292A" fill-opacity="0.5"/>
<path id="Vector_21" d="M75.1854 110.251C80.0714 106.082 89.8485 106.641 93.8672 110.794C90.6495 111.303 87.2292 111.929 83.9257 112.757C79.5783 113.649 76.9064 112.764 75.1854 110.251Z" fill="#24292A" fill-opacity="0.5"/>
<path id="Vector_22" d="M67.541 90.9285C61.456 92.5535 55.6594 93.7423 49.6458 91.2802C48.2515 90.7366 46.0395 88.7769 46.0943 87.9361C46.8117 85.9035 48.9306 86.2985 50.8159 86.289C51.4547 86.4596 51.8909 86.7472 52.5297 86.9179C57.1799 89.358 62.1734 90.521 67.541 90.9285Z" fill="#24292A" fill-opacity="0.5"/>
<path id="Vector_23" d="M70.5079 93.2611C66.8065 96.2074 62.8714 98.749 58.0568 98.8314C56.6934 98.8094 54.6603 98.0951 54.6293 97.5735C54.3337 96.1258 56.188 95.5947 57.3178 95.2121C57.723 94.9782 58.2449 94.9466 58.5643 95.0319C62.7712 95.3004 66.7135 94.6427 70.5079 93.2611Z" fill="#24292A" fill-opacity="0.5"/>
<path id="Vector_24" d="M96.7152 119.939C96.4723 124.664 96.3461 129.592 94.3036 134.008C93.9294 134.764 93.3526 135.636 92.5422 136.104C91.9345 136.455 90.7737 136.316 90.0181 135.943C89.5819 135.655 89.4031 134.41 89.7773 133.655C91.8198 129.239 93.9481 124.503 95.8739 119.885C96.1933 119.97 96.5126 120.056 96.7152 119.939Z" fill="#24292A" fill-opacity="0.5"/>
<path id="Vector_25" d="M75.0774 81.9919C72.2505 78.4992 69.774 75.6133 67.5858 72.2912C66.5657 70.9921 66.0365 69.1397 65.9435 67.5751C65.8505 66.0104 66.8634 65.4255 68.172 66.2884C68.8108 66.4591 69.247 66.7467 69.4806 67.1513C72.5721 71.5702 74.3312 76.4887 75.0774 81.9919Z" fill="#24292A" fill-opacity="0.5"/>
<path id="Vector_26" d="M128.538 75.4017C123.943 72.1208 119.23 68.6377 114.838 65.2398C113.529 64.3769 113.989 63.3022 114.651 62.1104C115.314 60.9187 116.272 61.1747 117.145 61.7499C122.176 65.3185 125.01 70.6952 128.538 75.4017Z" fill="#24292A" fill-opacity="0.5"/>
<path id="Vector_27" d="M127.626 79.4352C123.701 76.8465 119.689 74.5771 116.083 72.0738C115.53 71.5839 115.554 70.2215 115.086 69.4123C115.811 69.2637 116.824 68.6789 117.463 68.8495C118.304 68.9032 119.176 69.4785 119.729 69.9684C122.611 72.6203 125.61 75.4746 128.608 78.3288C128.203 78.5627 127.915 78.999 127.626 79.4352Z" fill="#24292A" fill-opacity="0.5"/>
<path id="Vector_28" d="M98.3053 118.481C98.4985 123.495 100.258 128.413 98.8849 133.521C98.7133 134.16 97.9887 134.308 97.4978 134.862C97.1474 134.255 96.3918 133.882 96.3608 133.36C96.0104 132.753 95.8626 132.029 96.0342 131.391C96.7134 126.953 97.5093 122.717 98.3053 118.481Z" fill="#24292A" fill-opacity="0.5"/>
<path id="Vector_29" d="M95.4069 119.076C92.2894 123.034 92.4278 128.888 87.4488 131.493C86.9268 131.524 86.81 131.322 86.4906 131.237C86.6312 130.076 86.5382 128.512 87.2318 127.842C89.4531 124.671 92.3132 121.671 94.8539 118.586C94.9707 118.788 95.0875 118.99 95.4069 119.076Z" fill="#24292A" fill-opacity="0.5"/>
<path id="Vector_30" d="M131.032 75.0412C128.439 71.9531 125.409 68.5773 122.699 65.2868C122.465 64.8822 122.52 64.0414 122.575 63.2005C123.214 63.3712 123.822 63.0203 124.258 63.3079C126.992 65.236 129.032 67.8342 130.059 71.0173C130.674 72.5504 130.767 74.1151 131.032 75.0412Z" fill="#24292A" fill-opacity="0.5"/>
<path id="Vector_31" d="M51.21 121.126C48.2021 123.402 45.1942 125.678 41.8669 127.869C41.2591 128.22 40.1842 127.762 39.3428 127.708C39.717 126.952 40.0602 125.675 40.4653 125.442C44.0262 123.655 47.5013 122.188 50.8596 120.519C50.9764 120.722 51.0932 120.924 51.21 121.126Z" fill="#24292A" fill-opacity="0.5"/>
<path id="Vector_32" d="M52.2847 121.585C50.9048 124.809 49.0886 127.745 46.7195 130.192C46.4311 130.628 45.2704 130.489 44.5148 130.116C44.1954 130.031 44.336 128.871 44.5076 128.232C44.5934 127.913 44.9986 127.679 45.2012 127.562C47.6013 125.637 49.682 123.627 52.2847 121.585Z" fill="#24292A" fill-opacity="0.5"/>
<path id="Vector_33" d="M58.3317 117.554C56.711 118.49 55.729 119.596 54.8876 119.542C53.5243 119.52 51.4911 118.806 51.9201 117.21C52.0607 116.05 53.8841 114.997 55.1306 114.817C55.8552 114.668 56.7896 116.286 58.3317 117.554Z" fill="#24292A" fill-opacity="0.5"/>
<path id="Vector_34" d="M60.4469 79.1099C64.2796 80.1338 66.7251 82.4981 68.999 85.501C64.1534 85.0618 59.8773 81.8663 60.4469 79.1099Z" fill="#24292A" fill-opacity="0.5"/>
<path id="Vector_35" d="M135.408 81.6855C135.003 81.9194 134.107 82.7066 133.382 82.8552C132.136 83.0354 130.041 81.278 130.501 80.2032C130.875 79.4477 131.771 78.6606 132.496 78.512C133.828 78.0125 135.401 79.8015 135.408 81.6855Z" fill="#24292A" fill-opacity="0.5"/>
<path id="Vector_36" d="M49.3794 120.295C47.0341 121.379 44.6888 122.464 42.2267 123.346C41.6189 123.697 40.6297 122.919 39.991 122.748C40.6845 122.078 41.1445 121.003 41.8691 120.855C44.2454 120.292 46.8553 120.134 49.2316 119.571C49.1458 119.89 49.2626 120.093 49.3794 120.295Z" fill="#24292A" fill-opacity="0.5"/>
<path id="Vector_37" d="M73.8145 85.4185C74.9514 86.92 76.0574 87.8998 76.0026 88.7406C75.9478 89.5815 74.6155 90.081 73.7193 90.8681C72.9327 89.9736 71.9435 89.196 71.6789 88.2699C71.6479 87.7483 72.7467 86.8442 73.8145 85.4185Z" fill="#24292A" fill-opacity="0.5"/>
<path id="Vector_38" d="M98.9058 116.246C98.0024 115.15 97.652 114.543 96.9822 113.85C97.7926 113.383 98.572 112.393 99.094 112.362C99.9353 112.415 101.041 113.395 100.987 114.236C101.018 114.757 100.005 115.342 98.9058 116.246Z" fill="#24292A" fill-opacity="0.5"/>
<path id="Vector_39" d="M43.2798 118.152C45.2747 116.461 47.4246 117.377 49.6604 117.975C49.7772 118.177 49.6913 118.496 49.8081 118.699C47.7202 118.825 45.4297 119.069 43.3418 119.195C43.4276 118.876 43.3108 118.674 43.2798 118.152Z" fill="#24292A" fill-opacity="0.5"/>
</g>
</svg>
