<svg width="113" height="28" viewBox="0 0 113 28" fill="none" xmlns="http://www.w3.org/2000/svg">
<g id="Group 2475">
<g id="Group 1093">
<rect id="Rectangle 720" y="0.503052" width="26.9155" height="26.9939" rx="13.4577" fill="white"/>
<g id="Group">
<path id="Vector" d="M14.6404 21.1998C13.6696 21.1998 12.7559 21.1998 11.7852 21.1998C11.7852 18.1358 11.7852 15.0717 11.7852 11.9791C12.6703 11.9791 13.584 11.9791 14.4977 11.9791C14.4977 12.38 14.4977 12.7809 14.4977 13.2104C14.5262 13.1818 14.5548 13.1818 14.5548 13.1818C15.1544 12.2081 16.0395 11.7786 17.153 11.75C17.7812 11.7213 18.4094 11.8072 18.9804 12.0936C19.7228 12.4372 20.1511 13.0672 20.3795 13.8404C20.5793 14.4704 20.6365 15.1004 20.6365 15.7303C20.6365 17.5058 20.6365 19.2812 20.6365 21.0566C20.6365 21.0852 20.6365 21.1139 20.6365 21.1425C19.6942 21.1425 18.752 21.1425 17.7812 21.1425C17.7812 21.0852 17.7812 21.028 17.7812 20.9421C17.7812 19.4244 17.7812 17.9353 17.7812 16.4176C17.7812 16.074 17.7526 15.7303 17.6955 15.3867C17.5242 14.4417 16.8961 14.1267 16.0395 14.2413C15.24 14.3272 14.8117 14.814 14.669 15.6731C14.6119 15.9881 14.6119 16.3031 14.6119 16.6181C14.6119 18.0498 14.6119 19.5103 14.6119 20.9421C14.6404 21.0566 14.6404 21.1139 14.6404 21.1998Z" fill="#111617"/>
<path id="Vector_2" d="M7.12891 12.0072C8.07114 12.0072 9.01338 12.0072 9.95561 12.0072C9.95561 15.0712 9.95561 18.1353 9.95561 21.1993C9.01338 21.1993 8.07114 21.1993 7.12891 21.1993C7.12891 18.1353 7.12891 15.0712 7.12891 12.0072Z" fill="#111617"/>
<path id="Vector_3" d="M10.1859 9.05734C10.1859 9.97354 9.44352 10.7179 8.55839 10.7466C7.64471 10.7466 6.90234 10.0022 6.90234 9.08597C6.90234 8.16977 7.64471 7.42536 8.55839 7.42536C9.44352 7.39673 10.1859 8.14114 10.1859 9.05734Z" fill="#111617"/>
</g>
</g>
<g id="Group 1094">
<rect id="Rectangle 719" x="42.916" y="0.503052" width="26.9155" height="26.9939" rx="13.4577" fill="white"/>
<path id="Vector_4" d="M59.0144 7.42456C59.2505 7.4505 59.4605 7.4505 59.6966 7.47644C59.8541 7.47644 60.0115 7.50238 60.169 7.52832C60.169 8.22866 60.169 8.90306 60.169 9.62935C60.1165 9.62935 60.0378 9.62935 59.9853 9.62935C59.5392 9.62935 59.0931 9.62935 58.647 9.65528C58.0959 9.68122 57.781 9.96655 57.7548 10.5113C57.7286 11.0819 57.7548 11.6526 57.7548 12.2491C58.5158 12.2491 59.303 12.2491 60.0903 12.2491C59.9853 13.0273 59.8803 13.8055 59.7754 14.5836C59.0931 14.5836 58.4371 14.5836 57.7548 14.5836C57.7548 16.5809 57.7548 18.5782 57.7548 20.5755C56.9413 20.5755 56.1279 20.5755 55.3144 20.5755C55.3144 18.5782 55.3144 16.6068 55.3144 14.5836C54.6321 14.5836 53.9498 14.5836 53.2676 14.5836C53.2676 13.8055 53.2676 13.0273 53.2676 12.2491C53.9498 12.2491 54.6059 12.2491 55.3144 12.2491C55.3144 12.1713 55.3144 12.1454 55.3144 12.0935C55.3144 11.471 55.3144 10.8744 55.3144 10.2519C55.3406 9.52559 55.5768 8.85119 56.1016 8.28054C56.4952 7.86552 56.9938 7.63207 57.5711 7.50238C57.7286 7.47644 57.886 7.4505 58.0172 7.42456C58.3321 7.42456 58.6732 7.42456 59.0144 7.42456Z" fill="#111617"/>
</g>
<g id="Group 1095">
<rect id="Rectangle 718" x="85.8301" y="0.503052" width="26.9155" height="26.9939" rx="13.4577" fill="white"/>
<path id="Vector_5" d="M92.7324 18.4009C94.2531 18.5219 95.6568 18.1588 96.885 17.1905C95.5983 17.0694 94.721 16.4037 94.2531 15.1328C94.6625 15.1933 95.0719 15.1933 95.5398 15.0723C94.8379 14.8907 94.3116 14.5276 93.9022 14.0434C93.4927 13.4987 93.2588 12.8935 93.2588 12.1673C93.6682 12.3489 94.0776 12.5304 94.5455 12.5304C93.9022 12.0463 93.5512 11.5016 93.3758 10.7753C93.2003 10.0491 93.3173 9.32285 93.6682 8.65713C95.1889 10.5332 97.1189 11.5621 99.5169 11.7437C99.5169 11.4411 99.4584 11.199 99.5169 10.8964C99.5753 9.68597 100.453 8.53609 101.564 8.23349C102.617 7.93089 103.552 8.23349 104.313 8.95973C104.371 9.02025 104.43 9.02025 104.488 9.02025C105.073 8.89921 105.599 8.65713 106.184 8.35453C105.95 9.02025 105.541 9.56493 105.015 9.92805C105.015 9.92805 105.015 9.92805 105.015 9.98857C105.249 9.92805 105.541 9.86753 105.775 9.80701C106.009 9.74649 106.301 9.62545 106.535 9.56493C106.184 10.0491 105.833 10.5333 105.366 10.8964C105.19 11.0174 105.132 11.1385 105.132 11.3805C105.132 12.712 104.839 13.9224 104.313 15.1328C103.611 16.5853 102.675 17.7957 101.33 18.6429C100.394 19.2481 99.3414 19.6113 98.2301 19.7928C97.4698 19.9139 96.7095 19.9139 95.9492 19.7928C94.7794 19.4297 93.7267 19.0666 92.7324 18.4009Z" fill="#111617"/>
</g>
</g>
</svg>
