<?xml version="1.0" standalone="no"?>
<!DOCTYPE svg PUBLIC "-//W3C//DTD SVG 20010904//EN"
 "http://www.w3.org/TR/2001/REC-SVG-20010904/DTD/svg10.dtd">
<svg version="1.0" xmlns="http://www.w3.org/2000/svg"
 width="70.000000pt" height="70.000000pt" viewBox="0 0 70.000000 70.000000"
 preserveAspectRatio="xMidYMid meet">
<metadata>
Created by potrace 1.14, written by Peter Selinger 2001-2017
</metadata>
<g transform="translate(0.000000,70.000000) scale(0.100000,-0.100000)"
fill="#000000" stroke="none">
<path d="M0 350 l0 -350 350 0 350 0 0 350 0 350 -350 0 -350 0 0 -350z m610
160 l0 -40 -265 0 -265 0 0 40 0 40 265 0 265 0 0 -40z m-92 -152 l-3 -43
-215 0 -215 0 -3 43 -3 42 221 0 221 0 -3 -42z m87 -153 l0 -40 -262 -3 -263
-2 0 38 c0 21 3 42 7 45 4 4 122 6 262 5 l256 -3 0 -40z"/>
</g>
</svg>
