<svg width="26" height="25" viewBox="0 0 26 25" fill="none" xmlns="http://www.w3.org/2000/svg">
<path id="Ellipse 57" d="M10.361 22.9278C10.0751 23.9947 8.96842 24.6424 7.96208 24.1871C5.92823 23.2667 4.17182 21.8026 2.89712 19.9392C1.24363 17.5222 0.509865 14.5931 0.828592 11.682C1.14732 8.77094 2.49748 6.07005 4.63479 4.06805C6.7721 2.06605 9.5554 0.895163 12.4811 0.76724C15.4068 0.639316 18.2817 1.5628 20.5856 3.37062C22.8895 5.17843 24.4702 7.75117 25.0418 10.6233C25.6134 13.4955 25.1381 16.4774 23.7019 19.0296C22.5947 20.9971 20.9728 22.6089 19.027 23.7033C18.0642 24.2447 16.9053 23.6961 16.5273 22.6581L16.4642 22.4847C16.0863 21.4468 16.6422 20.3174 17.5558 19.6966C18.5804 19.0004 19.4388 18.0725 20.0551 16.9774C21.0012 15.2962 21.3143 13.332 20.9377 11.4401C20.5612 9.54817 19.52 7.85348 18.0024 6.66266C16.4848 5.47183 14.5911 4.86352 12.6639 4.94779C10.7367 5.03205 8.90332 5.80332 7.49545 7.12206C6.08759 8.4408 5.19822 10.2199 4.98828 12.1375C4.77833 14.055 5.26166 15.9844 6.35083 17.5766C7.06036 18.6137 7.99644 19.4631 9.07792 20.0673C10.0422 20.606 10.6946 21.6826 10.4087 22.7495L10.361 22.9278Z" fill="url(#paint0_linear_125_506)"/>
<defs>
<linearGradient id="paint0_linear_125_506" x1="14.5767" y1="-0.484746" x2="13.3814" y2="22.9439" gradientUnits="userSpaceOnUse">
<stop stop-color="#050505"/>
<stop offset="1" stop-color="#D9D9D9" stop-opacity="0"/>
</linearGradient>
</defs>
</svg>
