<svg width="33" height="32" viewBox="0 0 33 32" fill="none" xmlns="http://www.w3.org/2000/svg">
<path id="Ellipse 56" d="M12.8378 29.8126C12.5519 30.8795 11.4484 31.5243 10.4259 31.1065C7.56628 29.9381 5.0954 27.9532 3.33487 25.3797C1.196 22.2531 0.246847 18.4643 0.659133 14.6986C1.07142 10.933 2.81792 7.43922 5.58263 4.84954C8.34735 2.25985 11.9477 0.745257 15.7322 0.579782C19.5168 0.414307 23.2355 1.60888 26.2157 3.94738C29.1959 6.28588 31.2407 9.61383 31.9801 13.3291C32.7195 17.0444 32.1046 20.9017 30.2468 24.203C28.7176 26.9203 26.4294 29.1133 23.6827 30.5269C22.7006 31.0323 21.545 30.4863 21.1671 29.4484L20.6837 28.1208C20.3058 27.0829 20.855 25.9505 21.802 25.382C23.3464 24.4549 24.6351 23.1378 25.5296 21.5483C26.7533 19.3737 27.1583 16.8329 26.6713 14.3856C26.1843 11.9383 24.8373 9.74618 22.8743 8.20579C20.9112 6.6654 18.4616 5.87852 15.9687 5.98752C13.4758 6.09652 11.1042 7.0942 9.28304 8.80005C7.46189 10.5059 6.31146 12.8072 6.03988 15.2877C5.76831 17.7682 6.39352 20.264 7.80242 22.3234C8.83221 23.8288 10.231 25.0284 11.8503 25.8171C12.8434 26.3008 13.4893 27.3809 13.2035 28.4478L12.8378 29.8126Z" fill="url(#paint0_linear_125_505)"/>
<defs>
<linearGradient id="paint0_linear_125_505" x1="18.443" y1="-1.03972" x2="16.8968" y2="29.2663" gradientUnits="userSpaceOnUse">
<stop stop-color="#050505"/>
<stop offset="1" stop-color="#D9D9D9" stop-opacity="0"/>
</linearGradient>
</defs>
</svg>
