<svg width="13" height="13" viewBox="0 0 13 13" fill="none" xmlns="http://www.w3.org/2000/svg">
<path id="Ellipse 58" d="M5.09284 11.3076C4.9436 11.8646 4.36553 12.203 3.842 11.9613C2.84487 11.5011 1.98376 10.7778 1.35645 9.8608C0.53135 8.65469 0.165201 7.19309 0.324247 5.74044C0.483291 4.28779 1.15702 2.94004 2.22355 1.94104C3.29007 0.942037 4.67895 0.357763 6.13888 0.293929C7.59881 0.230095 9.03338 0.690917 10.183 1.59302C11.3327 2.49513 12.1215 3.77893 12.4067 5.21215C12.6919 6.64537 12.4547 8.13335 11.7381 9.40688C11.1932 10.3751 10.3985 11.1708 9.44534 11.7163C8.9449 12.0028 8.33949 11.7161 8.14221 11.1743C7.94493 10.6325 8.23593 10.0431 8.70912 9.71364C9.20367 9.36926 9.61844 8.91572 9.91833 8.38282C10.3904 7.54393 10.5466 6.56379 10.3588 5.61971C10.1709 4.67563 9.6513 3.82998 8.89401 3.23576C8.13673 2.64153 7.19176 2.33798 6.23009 2.38003C5.26842 2.42208 4.35356 2.80695 3.65103 3.465C2.9485 4.12305 2.5047 5.01083 2.39994 5.9677C2.29517 6.92457 2.53636 7.88734 3.07986 8.68182C3.42512 9.18652 3.87789 9.60212 4.40061 9.90202C4.90075 10.189 5.24208 10.7506 5.09284 11.3076Z" fill="url(#paint0_linear_125_507)"/>
<defs>
<linearGradient id="paint0_linear_125_507" x1="7.1846" y1="-0.330815" x2="6.58813" y2="11.3601" gradientUnits="userSpaceOnUse">
<stop stop-color="#050505"/>
<stop offset="1" stop-color="#D9D9D9" stop-opacity="0"/>
</linearGradient>
</defs>
</svg>
